<?xml version="1.0" encoding="UTF-8" standalone="no"?>
<!-- Created with Inkscape (http://www.inkscape.org/) -->

<svg
   xmlns:dc="http://purl.org/dc/elements/1.1/"
   xmlns:cc="http://creativecommons.org/ns#"
   xmlns:rdf="http://www.w3.org/1999/02/22-rdf-syntax-ns#"
   xmlns:svg="http://www.w3.org/2000/svg"
   xmlns="http://www.w3.org/2000/svg"
   xmlns:sodipodi="http://sodipodi.sourceforge.net/DTD/sodipodi-0.dtd"
   xmlns:inkscape="http://www.inkscape.org/namespaces/inkscape"
   id="svg2"
   version="1.1"
   inkscape:version="0.91 r13725"
   xml:space="preserve"
   width="114"
   height="59"
   viewBox="0 0 1105.015 577.89001"
   sodipodi:docname="Svenheim_logo_white_cmyk.svg"><metadata
     id="metadata8"><rdf:RDF><cc:Work
         rdf:about=""><dc:format>image/svg+xml</dc:format><dc:type
           rdf:resource="http://purl.org/dc/dcmitype/StillImage" /><dc:title></dc:title></cc:Work></rdf:RDF></metadata><defs
     id="defs6"><clipPath
       clipPathUnits="userSpaceOnUse"
       id="clipPath16"><path
         d="m 0,462.312 884.012,0 L 884.012,0 0,0 0,462.312 Z"
         id="path18"
         inkscape:connector-curvature="0" /></clipPath><linearGradient
       x1="0"
       y1="0"
       x2="1"
       y2="0"
       gradientUnits="userSpaceOnUse"
       gradientTransform="matrix(28.533966,-60.850418,-60.850418,-28.533966,428.45898,328.61154)"
       spreadMethod="pad"
       id="linearGradient78"><stop
         style="stop-opacity:1;stop-color:#e15565"
         offset="0"
         id="stop80" /><stop
         style="stop-opacity:1;stop-color:#e15565"
         offset="0.111256"
         id="stop82" /><stop
         style="stop-opacity:1;stop-color:#1c3f55"
         offset="0.911293"
         id="stop84" /><stop
         style="stop-opacity:1;stop-color:#1c3f55"
         offset="1"
         id="stop86" /></linearGradient></defs><sodipodi:namedview
     pagecolor="#ffffff"
     bordercolor="#666666"
     borderopacity="1"
     objecttolerance="10"
     gridtolerance="10"
     guidetolerance="10"
     inkscape:pageopacity="0"
     inkscape:pageshadow="2"
     inkscape:window-width="1920"
     inkscape:window-height="1017"
     id="namedview4"
     showgrid="false"
     inkscape:zoom="0.34931652"
     inkscape:cx="552.50751"
     inkscape:cy="288.94501"
     inkscape:window-x="-8"
     inkscape:window-y="-8"
     inkscape:window-maximized="1"
     inkscape:current-layer="g10" /><g
     id="g10"
     inkscape:groupmode="layer"
     inkscape:label="Svenheim_logo_cmyk"
     transform="matrix(1.25,0,0,-1.25,0,577.89)"><g
       id="g4216"><g
         style="fill:#ffffff"
         id="g12"><g
           style="fill:#ffffff"
           clip-path="url(#clipPath16)"
           id="g14"><g
             style="fill:#ffffff"
             transform="translate(168.3117,149.0381)"
             id="g20"><path
               inkscape:connector-curvature="0"
               id="path22"
               style="fill:#ffffff;fill-opacity:1;fill-rule:nonzero;stroke:none"
               d="m 0,0 c -3.424,2.054 -7.32,3.735 -11.587,5.008 -4.194,1.249 -8.638,2.25 -13.194,2.965 -6.704,1.114 -12.124,2.672 -16.11,4.623 -3.557,1.741 -5.289,4.542 -5.289,8.565 0,3.453 1.653,6.077 5.057,8.025 3.658,2.095 8.26,3.158 13.678,3.158 5.413,0 10.192,-1.195 14.197,-3.545 4.052,-2.384 7.465,-5.545 10.144,-9.392 l 1.172,-1.678 12.145,12.64 -0.721,1.115 c -3.512,5.457 -8.449,9.717 -14.674,12.671 -6.171,2.922 -13.527,4.405 -21.862,4.405 -6.63,0 -12.812,-1.109 -18.38,-3.299 -5.635,-2.217 -10.235,-5.464 -13.671,-9.645 -3.51,-4.266 -5.291,-9.394 -5.291,-15.248 0,-8.838 3.198,-15.649 9.507,-20.25 6.067,-4.424 14.31,-7.532 24.525,-9.247 7.766,-1.21 13.856,-2.837 18.102,-4.83 3.814,-1.794 5.667,-4.486 5.667,-8.228 0,-2.542 -0.87,-4.591 -2.654,-6.266 -1.921,-1.801 -4.467,-3.188 -7.555,-4.122 -3.184,-0.965 -6.545,-1.453 -9.986,-1.453 -6.719,0 -12.353,1.387 -16.747,4.122 -4.488,2.794 -8.854,6.814 -12.962,11.953 l -1.288,1.609 -11.731,-14.169 0.846,-1.065 c 5.192,-6.556 11.301,-11.363 18.157,-14.292 6.809,-2.901 14.476,-4.374 22.798,-4.374 7.877,0 14.832,1.272 20.679,3.781 5.923,2.544 10.557,6.175 13.772,10.788 3.233,4.644 4.873,10.163 4.873,16.406 0,4.47 -1.078,8.33 -3.203,11.481 C 6.338,-4.722 3.505,-2.102 0,0" /></g><g
             style="fill:#ffffff"
             transform="translate(248.6462,173.0723)"
             id="g24"><path
               inkscape:connector-curvature="0"
               id="path26"
               style="fill:#ffffff;fill-opacity:1;fill-rule:nonzero;stroke:none"
               d="M 0,0 -23.976,-49.976 -47.186,0 l -18.99,0 35.157,-72.953 12.963,0 L 18.353,0 0,0 Z" /></g><g
             style="fill:#ffffff"
             transform="translate(417.0608,170.2745)"
             id="g28"><path
               inkscape:connector-curvature="0"
               id="path30"
               style="fill:#ffffff;fill-opacity:1;fill-rule:nonzero;stroke:none"
               d="m 0,0 c -4.282,2.824 -10.011,4.257 -17.033,4.257 -5.763,0 -11.05,-1.42 -15.706,-4.217 -3.086,-1.85 -5.789,-3.916 -8.068,-6.168 l 0,8.926 -17.009,0 0,-72.953 17.009,0 0,41.712 c 0,2.659 0.843,5.293 2.509,7.827 1.696,2.588 4.066,4.745 7.045,6.421 2.953,1.656 6.4,2.499 10.292,2.499 l 0.81,0.012 c 5.033,0 8.721,-1.42 11.264,-4.337 2.754,-3.166 4.096,-7.097 4.096,-12.023 l 0,-42.111 17.013,0 0,43.567 c 0,5.582 -0.957,10.727 -2.847,15.291 C 7.437,-6.624 4.282,-2.819 0,0" /></g><g
             style="fill:#ffffff"
             transform="translate(507.9348,170.2715)"
             id="g32"><path
               inkscape:connector-curvature="0"
               id="path34"
               style="fill:#ffffff;fill-opacity:1;fill-rule:nonzero;stroke:none"
               d="m 0,0 c -4.233,2.827 -9.853,4.26 -16.704,4.26 -5.742,0 -11.098,-1.341 -15.921,-3.985 -3.239,-1.777 -6.047,-3.8 -8.384,-6.049 l 0,37.078 -17.011,0 0,-101.456 17.011,0 0,41.712 c 0,2.662 0.846,5.322 2.514,7.906 1.702,2.63 4.067,4.806 7.038,6.472 2.958,1.66 6.403,2.502 10.32,2.506 0.393,0.016 0.778,0.027 1.158,0.027 4.841,0 8.405,-1.405 10.882,-4.286 2.722,-3.165 4.104,-7.278 4.104,-12.226 l 0,-42.111 17.012,0 0,43.567 c 0,5.582 -0.935,10.72 -2.774,15.278 C 7.355,-6.631 4.243,-2.826 0,0" /></g><g
             style="fill:#ffffff"
             transform="translate(635.8547,205.418)"
             id="g36"><path
               inkscape:connector-curvature="0"
               id="path38"
               style="fill:#ffffff;fill-opacity:1;fill-rule:nonzero;stroke:none"
               d="m 0,0 c -3.597,0 -6.349,-1.092 -8.171,-3.242 -1.761,-2.07 -2.658,-4.444 -2.658,-7.054 0,-2.998 0.917,-5.479 2.714,-7.382 1.82,-1.931 4.551,-2.912 8.115,-2.912 3.592,0 6.339,1.089 8.172,3.24 1.761,2.073 2.653,4.447 2.653,7.054 0,2.994 -0.912,5.48 -2.711,7.385 C 6.283,-0.98 3.555,0 0,0" /></g><path
             inkscape:connector-curvature="0"
             id="path40"
             style="fill:#ffffff;fill-opacity:1;fill-rule:nonzero;stroke:none"
             d="m 627.415,100.119 17.011,0 0,72.953 -17.011,0 0,-72.953 z" /><g
             style="fill:#ffffff"
             transform="translate(782.7981,158.4893)"
             id="g42"><path
               inkscape:connector-curvature="0"
               id="path44"
               style="fill:#ffffff;fill-opacity:1;fill-rule:nonzero;stroke:none"
               d="m 0,0 c -1.659,4.784 -4.572,8.654 -8.646,11.497 -4.07,2.84 -9.655,4.279 -16.603,4.279 -4.448,0 -8.638,-0.826 -12.459,-2.453 -3.761,-1.606 -7.113,-3.633 -9.962,-6.027 -1.88,-1.573 -3.496,-3.128 -4.827,-4.644 -1.853,3.825 -4.553,6.874 -8.045,9.087 -4.233,2.68 -9.528,4.037 -15.747,4.037 -6.098,0 -11.595,-1.367 -16.337,-4.062 -3.102,-1.765 -5.766,-3.673 -7.966,-5.706 l 0,8.575 -17.143,0 0,-72.953 17.143,0 0,41.449 c 0,2.669 0.806,5.286 2.392,7.781 1.614,2.545 3.9,4.703 6.794,6.415 2.856,1.692 6.16,2.551 9.815,2.551 5.438,0 9.34,-1.475 11.598,-4.39 2.361,-3.043 3.558,-7.067 3.558,-11.96 l 0,-41.846 17.147,0 0,40.121 c 0,3.289 0.874,6.332 2.591,9.044 1.732,2.742 4.169,4.952 7.249,6.572 3.101,1.633 6.676,2.459 10.62,2.459 5.294,0 8.85,-1.432 10.877,-4.378 2.136,-3.101 3.218,-7.22 3.218,-12.238 l 0,-41.58 17.143,0 0,42.905 C 2.41,-9.828 1.601,-4.624 0,0" /></g><g
             style="fill:#ffffff"
             transform="translate(550.7688,145.3663)"
             id="g46"><path
               inkscape:connector-curvature="0"
               id="path48"
               style="fill:#ffffff;fill-opacity:1;fill-rule:nonzero;stroke:none"
               d="m 0,0 c 1.456,4.551 4.004,7.758 7.738,9.769 4.418,2.374 9.681,3.577 15.647,3.577 3.299,0 6.506,-0.607 9.523,-1.804 2.978,-1.184 5.465,-2.846 7.404,-4.944 C 42.145,4.606 43.212,2.387 43.549,0 L 0,0 Z m 60.855,-6.186 c 0,7.012 -1.716,13.248 -5.104,18.536 -3.365,5.259 -7.927,9.443 -13.546,12.441 -5.611,2.99 -11.943,4.506 -18.82,4.506 -7.389,0 -14.305,-1.552 -20.556,-4.611 -6.3,-3.08 -11.404,-7.559 -15.182,-13.314 -3.789,-5.774 -5.709,-12.796 -5.709,-20.872 0,-7.104 1.831,-13.544 5.437,-19.135 3.595,-5.581 8.683,-10.021 15.119,-13.192 6.393,-3.149 13.819,-4.745 22.084,-4.745 4.267,0 8.502,0.505 12.596,1.505 4.089,1.001 7.884,2.358 11.277,4.037 2.758,1.358 7.691,4.949 9.734,6.421 l -8.1,12.511 -1.421,-0.877 c -2.289,-1.613 -5.27,-3.332 -8.856,-5.102 -3.413,-1.689 -7.915,-2.545 -13.373,-2.545 -7.488,0 -13.77,1.685 -18.679,5.014 -2.417,1.638 -4.529,3.824 -6.065,6.346 -1.474,2.426 -2.204,5.036 -2.872,7.768 l 61.929,0 0.107,5.308 z" /></g><g
             style="fill:#ffffff"
             transform="translate(284.2234,145.3663)"
             id="g50"><path
               inkscape:connector-curvature="0"
               id="path52"
               style="fill:#ffffff;fill-opacity:1;fill-rule:nonzero;stroke:none"
               d="m 0,0 c 1.456,4.551 4.003,7.758 7.738,9.769 4.418,2.374 9.681,3.577 15.646,3.577 3.299,0 6.506,-0.607 9.524,-1.804 2.977,-1.184 5.465,-2.846 7.404,-4.944 C 42.145,4.606 43.211,2.387 43.548,0 L 0,0 Z m 60.855,-6.186 c 0,7.012 -1.717,13.248 -5.104,18.536 -3.366,5.259 -7.927,9.443 -13.546,12.441 -5.611,2.99 -11.943,4.506 -18.821,4.506 -7.388,0 -14.304,-1.552 -20.555,-4.611 -6.3,-3.08 -11.404,-7.559 -15.182,-13.314 -3.789,-5.774 -5.709,-12.796 -5.709,-20.872 0,-7.104 1.831,-13.544 5.437,-19.135 3.595,-5.581 8.682,-10.021 15.12,-13.192 6.392,-3.149 13.818,-4.745 22.083,-4.745 4.267,0 8.502,0.505 12.595,1.505 4.089,1.001 7.884,2.358 11.278,4.037 2.758,1.358 7.69,4.949 9.734,6.421 l -8.1,12.511 -1.421,-0.877 c -2.289,-1.613 -5.27,-3.332 -8.857,-5.102 -3.413,-1.689 -7.914,-2.545 -13.373,-2.545 -7.487,0 -13.769,1.685 -18.679,5.014 -2.417,1.638 -4.528,3.824 -6.064,6.346 -1.474,2.426 -2.204,5.036 -2.871,7.768 l 61.928,0 0.107,5.308 z" /></g><g
             style="fill:#ffffff"
             transform="translate(366.6037,244.4092)"
             id="g54"><path
               inkscape:connector-curvature="0"
               id="path56"
               style="fill:#ffffff;fill-opacity:1;fill-rule:nonzero;stroke:none"
               d="M 0,0 C 0.003,0.006 0.009,0.012 0.012,0.018 0.009,0.012 0.003,0.006 0,0" /></g><g
             style="fill:#ffffff"
             transform="translate(504.5793,306.3658)"
             id="g58"><path
               inkscape:connector-curvature="0"
               id="path60"
               style="fill:#ffffff;fill-opacity:1;fill-rule:nonzero;stroke:none"
               d="m 0,0 c -0.304,0 -0.99,-0.122 -2.204,-0.938 l -0.008,-0.005 c -9.07,-6.062 -79.174,-41.914 -127.773,-57.838 -5.396,-1.771 -7.173,-4.063 -7.051,-5.174 0.116,-1.052 1.974,-2.29 5.302,-2.617 12.144,-1.187 54.82,-4.691 94.094,-0.006 37.769,4.515 38.656,9.83 39.245,13.348 0.823,4.958 3.439,27.135 1.217,44.998 C 1.895,-0.803 0.54,0 0,0" /></g><g
             style="fill:#ffffff"
             transform="translate(511.1672,361.1646)"
             id="g62"><path
               inkscape:connector-curvature="0"
               id="path64"
               style="fill:#ffffff;fill-opacity:1;fill-rule:nonzero;stroke:none"
               d="m 0,0 c -3.682,0.392 -23.34,2.354 -48.78,2.354 -16.213,0 -31.459,-0.792 -45.317,-2.353 -37.704,-4.24 -38.658,-9.938 -39.229,-13.343 -0.773,-4.65 -3.423,-27.284 -1.222,-44.995 0.811,-6.481 1.936,-7.909 2.536,-8.182 0.338,-0.151 1.176,0 2.498,0.887 24.027,16.059 95.563,46.95 127.757,57.839 C 3.64,-5.965 5.421,-3.685 5.302,-2.6 5.21,-1.772 3.723,-0.397 0,0" /></g></g></g><g
         style="fill:#ffffff"
         id="g66"><g
           style="fill:#ffffff"
           id="g68"><g
             style="fill:#ffffff"
             id="g74"><g
               style="fill:#ffffff"
               id="g76"><path
                 inkscape:connector-curvature="0"
                 id="path88"
                 style="fill:#ffffff;stroke:none"
                 d="m 384.232,291.669 0,-0.002 c -0.005,-0.003 -0.01,-0.006 -0.013,-0.009 l 0,0 c 10.858,-5.86 26.959,-11.495 47.099,-16.453 l 0,0 c 33.399,14.988 61.514,29.683 67.935,33.732 l 0,0 c -6.535,2.655 -20.377,7.608 -48.851,15.857 l 0,0 c -30.612,-13.402 -54.701,-25.463 -66.17,-33.125" /></g></g></g></g></g></g></svg>